HIERARCHY
ROOT root
{
	OFFSET 0.000000 0.000000 0.000000
	CHANNELS 6 Xposition Yposition Zposition Zrotation Yrotation Xrotation
	JOINT lhip
	{
		OFFSET 0.058581 -0.082280 -0.017664
		CHANNELS 3 Zrotation Yrotation Xrotation
		JOINT lknee
		{
			OFFSET 0.043451 -0.386469 0.008037
			CHANNELS 3 Zrotation Yrotation Xrotation
			JOINT lankle
			{
				OFFSET -0.014790 -0.426874 -0.037428
				CHANNELS 3 Zrotation Yrotation Xrotation
				JOINT ltoe
				{
					OFFSET 0.041054 -0.060286 0.122042
					CHANNELS 3 Zrotation Yrotation Xrotation
					End Site
					{
						OFFSET 0.000000 0.000000 0.000000
					}
				}
			}
		}
	}
	JOINT rhip
	{
		OFFSET -0.060310 -0.090513 -0.013543
		CHANNELS 3 Zrotation Yrotation Xrotation
		JOINT rknee
		{
			OFFSET -0.043257 -0.383688 -0.004843
			CHANNELS 3 Zrotation Yrotation Xrotation
			JOINT rankle
			{
				OFFSET 0.019056 -0.420046 -0.034562
				CHANNELS 3 Zrotation Yrotation Xrotation
				JOINT rtoe
				{
					OFFSET -0.034840 -0.062106 0.130323
					CHANNELS 3 Zrotation Yrotation Xrotation
					End Site
					{
						OFFSET 0.000000 0.000000 0.000000
					}
				}
			}
		}
	}
	JOINT lowerback
	{
		OFFSET 0.004439 0.124404 -0.038385
		CHANNELS 3 Zrotation Yrotation Xrotation
		JOINT upperback
		{
			OFFSET 0.004488 0.137956 0.026820
			CHANNELS 3 Zrotation Yrotation Xrotation
			JOINT chest
			{
				OFFSET -0.002265 0.056032 0.002855
				CHANNELS 3 Zrotation Yrotation Xrotation
				JOINT lowerneck
				{
					OFFSET -0.013390 0.211636 -0.033468
					CHANNELS 3 Zrotation Yrotation Xrotation
					JOINT upperneck
					{
						OFFSET 0.010113 0.088937 0.050410
						CHANNELS 3 Zrotation Yrotation Xrotation
						End Site
						{
							OFFSET 0.000000 0.000000 0.000000
						}
					}
				}
				JOINT lclavicle
				{
					OFFSET 0.071702 0.114000 -0.018898
					CHANNELS 3 Zrotation Yrotation Xrotation
					JOINT lshoulder
					{
						OFFSET 0.122921 0.045205 -0.019046
						CHANNELS 3 Zrotation Yrotation Xrotation
						JOINT lelbow
						{
							OFFSET 0.255332 -0.015649 -0.022946
							CHANNELS 3 Zrotation Yrotation Xrotation
							JOINT lwrist
							{
								OFFSET 0.265709 0.012698 -0.007375
								CHANNELS 3 Zrotation Yrotation Xrotation
								End Site
								{
									OFFSET 0.000000 0.000000 0.000000
								}
							}
						}
					}
				}
				JOINT rclavicle
				{
					OFFSET -0.082954 0.112472 -0.023707
					CHANNELS 3 Zrotation Yrotation Xrotation
					JOINT rshoulder
					{
						OFFSET -0.113228 0.046853 -0.008472
						CHANNELS 3 Zrotation Yrotation Xrotation
						JOINT relbow
						{
							OFFSET -0.260127 -0.014369 -0.031269
							CHANNELS 3 Zrotation Yrotation Xrotation
							JOINT rwrist
							{
								OFFSET -0.269108 0.006794 -0.006027
								CHANNELS 3 Zrotation Yrotation Xrotation
								End Site
								{
									OFFSET 0.000000 0.000000 0.000000
								}
							}
						}
					}
				}
			}
		}
	}
}
MOTION
Frames: 10
Frame Time: 0.033333
1.156535 1.188576 0.990968 -85.743188 1.459036 86.444027 -0.509003 -1.411480 6.856385 -2.893226 -15.829912 3.936653 7.282153 9.146525 -20.643101 0.000000 -0.000000 0.000000 3.803167 -2.344572 5.230817 4.254853 4.731260 5.613221 0.873711 -3.233876 -10.939753 0.000000 -0.000000 0.000000 -2.899942 2.531498 3.378212 1.464183 -1.811354 2.966787 1.989952 -1.175629 4.850648 3.299699 4.859784 -1.112444 1.946000 1.819881 2.926527 -23.362653 6.309392 3.879917 -63.799429 -3.972610 7.600009 11.053818 -28.160898 6.662250 -2.427925 -2.566800 -11.356132 22.071389 -4.758460 3.290481 63.055217 0.979643 9.291938 -15.613418 24.392567 -3.709283 7.536193 1.046530 -12.156424 
1.156682 1.188801 0.990841 -85.704489 1.381791 86.667120 -0.587601 -1.559162 6.579610 -2.866715 -15.730836 3.956518 7.302700 9.128336 -20.449874 0.000000 -0.000000 0.000000 3.757304 -2.084561 4.887910 4.318258 4.583300 5.830130 1.088313 -3.395826 -10.917652 0.000000 -0.000000 0.000000 -2.908078 2.450233 3.111466 1.429002 -1.702307 2.950044 1.936547 -1.187051 5.032462 3.330021 4.915210 -1.503687 1.941974 1.610438 3.190526 -23.223609 6.347241 3.837770 -63.976427 -4.175909 7.882999 11.352475 -28.523799 6.513239 -2.145708 -2.659940 -11.415863 22.120939 -4.848038 3.156127 63.109254 1.075984 9.511584 -15.893529 24.514385 -3.824812 7.600042 1.135011 -12.180684 
1.156884 1.189366 0.990902 -85.689849 1.416181 86.699641 -0.499294 -1.638814 6.479472 -2.903817 -15.650756 4.023951 7.504806 9.072365 -20.045440 0.000000 -0.000000 0.000000 3.777979 -2.137173 5.006213 4.393753 4.629125 5.502217 0.831906 -3.446506 -10.365255 0.000000 -0.000000 0.000000 -2.830059 2.412479 3.246540 1.425821 -1.752144 2.854120 1.971046 -1.118914 4.876401 3.284046 4.744656 -1.096606 1.966095 1.782372 3.058202 -23.222580 6.405441 3.895124 -63.980677 -4.191333 7.881385 11.288547 -28.868851 6.788301 -2.371310 -2.662921 -11.637468 21.999367 -4.790013 3.312403 63.184558 1.142370 9.506762 -15.983093 24.748325 -3.779481 7.642678 1.060358 -12.315633 
1.156589 1.189676 0.990894 -85.589610 1.401044 86.608357 -0.502855 -1.646588 6.575064 -2.886992 -15.622035 4.077267 7.617967 8.974205 -19.822587 0.000000 -0.000000 0.000000 3.760487 -2.320725 5.157462 4.406411 4.477011 5.386076 1.036638 -3.544000 -10.603437 0.000000 -0.000000 0.000000 -2.779653 2.469429 3.244314 1.450597 -1.766206 3.031490 1.956936 -1.209121 4.989917 3.349521 4.673509 -1.543761 2.013412 1.584151 3.274907 -23.240784 6.322252 3.920031 -64.050710 -4.382214 7.958116 11.354193 -29.112043 6.685745 -2.193533 -2.534875 -11.498842 21.924658 -4.685109 3.213946 63.262347 1.109821 9.533714 -16.128891 24.841763 -3.843347 7.675172 0.785534 -12.220231 
1.157025 1.190002 0.990789 -85.590232 1.341681 86.691792 -0.539671 -1.671725 6.384824 -2.906218 -15.556779 4.231031 7.686307 8.846793 -19.805846 0.000000 -0.000000 0.000000 3.646266 -2.413272 5.055682 4.500673 4.356873 5.347532 1.170753 -3.442289 -10.857074 0.000000 -0.000000 0.000000 -2.821714 2.536520 3.310751 1.460168 -1.792581 2.907313 1.971530 -1.259821 4.980328 3.380282 4.544172 -1.422397 1.941591 1.516575 3.304230 -23.190825 6.318082 3.998111 -64.094805 -4.330682 7.979191 11.376265 -29.463459 6.653832 -2.119436 -2.542389 -11.580378 21.903208 -4.672816 3.340832 63.251763 1.218731 9.474136 -16.179096 25.220792 -3.984595 7.550217 0.970538 -12.303020 
1.157014 1.190249 0.990832 -85.530096 1.318226 86.682503 -0.597826 -1.693203 6.385793 -2.814539 -15.589318 4.235909 7.747864 8.781682 -19.426369 0.000000 -0.000000 0.000000 3.557185 -2.508042 5.074460 4.627566 4.371227 5.335753 1.163870 -3.470547 -10.929882 0.000000 -0.000000 0.000000 -2.718730 2.509812 3.317974 1.439550 -1.830976 2.996687 1.903875 -1.314094 4.995068 3.350201 4.874817 -1.664301 1.792091 1.695985 3.520155 -23.293988 6.411273 3.860945 -64.010387 -4.311960 7.979923 11.370631 -29.511142 6.700849 -2.085841 -2.603020 -11.454759 22.149292 -4.738798 3.268225 62.969714 1.250414 9.570574 -16.186745 25.715265 -4.112972 7.242955 1.063985 -12.086448 
1.157415 1.191185 0.990468 -85.285456 1.469748 86.851353 -0.318059 -1.870127 6.031885 -2.952083 -15.425911 4.464553 7.911433 8.665749 -19.004685 0.000000 -0.000000 0.000000 3.830657 -2.479668 4.838878 4.618321 4.228061 5.312373 1.106578 -3.725461 -10.967025 0.000000 -0.000000 0.000000 -2.552959 2.399045 3.273101 1.472268 -1.859691 2.930448 1.855178 -1.365394 5.150055 3.218379 5.262648 -1.879739 1.882673 1.876579 3.660354 -23.186716 6.452247 3.775090 -64.093837 -4.355964 8.107996 11.335271 -29.405100 6.897370 -1.970409 -2.714534 -11.455456 22.206266 -4.924057 2.929930 62.984791 1.218707 9.755330 -16.198492 25.817372 -4.003371 7.267089 1.137570 -12.279197 
1.156381 1.190821 0.990642 -85.443680 1.291257 86.488778 -0.586289 -1.472442 6.628586 -2.779830 -15.558235 4.230476 7.795390 8.638709 -19.141691 0.000000 -0.000000 0.000000 3.449984 -2.797792 5.257243 4.712522 4.048889 5.362768 1.339000 -3.317186 -11.378416 0.000000 -0.000000 0.000000 -2.607511 2.503207 3.548574 1.427644 -1.823597 3.112112 1.916511 -1.277852 5.063268 3.206568 5.180058 -1.232642 1.916873 1.901631 3.508710 -23.243170 6.360862 3.789642 -64.193254 -4.183151 7.949264 11.376247 -29.365561 6.665346 -1.927522 -2.572308 -11.423544 22.197251 -4.770785 3.149337 62.935255 1.222631 9.508364 -16.290837 26.133458 -4.193825 7.143761 1.426774 -12.088704 
1.156259 1.191300 0.990524 -85.357110 1.353235 86.515511 -0.424207 -1.549317 6.657345 -2.844447 -15.494811 4.130580 7.888475 8.499012 -18.985580 0.000000 -0.000000 0.000000 3.549261 -2.792493 5.313303 4.715282 3.970677 5.221584 1.303545 -3.425481 -11.456430 0.000000 -0.000000 0.000000 -2.521025 2.435123 3.514936 1.455831 -1.888352 3.151888 1.899894 -1.239187 5.089545 3.272268 4.795282 -1.003454 1.967594 1.624425 3.476554 -23.198534 6.449409 3.808503 -64.262751 -4.168023 7.926744 11.304248 -29.224810 6.802862 -1.908687 -2.508697 -11.554684 22.101347 -4.838492 3.137523 63.039278 1.211869 9.539855 -16.199008 26.373839 -3.979499 7.143954 1.412328 -12.172818 
1.155907 1.191219 0.990644 -85.442896 1.234040 86.351585 -0.580022 -1.335006 6.876386 -2.759882 -15.497429 4.079974 7.860664 8.425287 -18.918499 0.000000 -0.000000 0.000000 3.348362 -2.993703 5.449287 4.768673 3.958466 5.327398 1.476785 -3.230278 -11.829589 0.000000 -0.000000 0.000000 -2.568283 2.559722 3.608589 1.458705 -1.879222 3.295795 1.912730 -1.237427 5.030967 3.469161 4.531237 -0.907646 1.998752 1.438091 3.460288 -23.188654 6.506152 3.851790 -64.370853 -3.998787 7.887913 11.376002 -29.076784 6.818601 -1.975858 -2.304747 -11.499113 22.004117 -4.821039 3.242930 63.233681 1.224245 9.433169 -16.222869 26.134549 -3.963002 7.317697 1.128388 -12.234182 
